<svg width="1088" height="767" viewBox="0 0 1088 767" fill="none" xmlns="http://www.w3.org/2000/svg">
<g clip-path="url(#clip0_2311_35)">
<path fill-rule="evenodd" clip-rule="evenodd" d="M907.264 0L875 49.6744H907.264V71V89H925.264H979.706H1061.06C1071 89 1079.06 80.9411 1079.06 71V18C1079.06 8.05887 1071 0 1061.06 0H979.706H925.264H907.264Z" fill="#1AD079"/>
<g filter="url(#filter0_d_2311_35)">
<path d="M1066 48H22C12.0589 48 4 56.0589 4 66V741C4 750.941 12.0589 759 22 759H1066C1075.94 759 1084 750.941 1084 741V66C1084 56.0589 1075.94 48 1066 48Z" fill="white"/>
</g>
<g clip-path="url(#clip1_2311_35)">
<path d="M936.288 22.256V25.352H945.744V22.256H936.288ZM942.6 31.928H951.048V34.496H931.032V31.928H939.432V27.872H933.144V16.328H936.288V19.76H945.744V16.328H948.864V27.872H942.6V31.928ZM967.078 23.672V30.68H964.126V15.344H967.078V21.128H968.95V14.96H971.95V31.28H968.95V23.672H967.078ZM962.878 24.152L963.142 26.696C960.526 27.224 958.222 27.32 955.486 27.32H953.974V16.808H957.142V24.752C959.086 24.704 960.886 24.56 962.878 24.152ZM960.142 34.088H972.502V36.608H956.974V29.216H960.142V34.088ZM985.513 19.544V29.36C986.329 29.36 987.145 29.312 987.985 29.288V19.544H985.513ZM991.033 19.544V29.096C991.969 29.048 992.881 28.952 993.793 28.832L993.985 31.112C989.329 31.904 984.241 32 980.281 32.024L979.945 29.432C980.737 29.432 981.577 29.432 982.441 29.432V19.544H980.521V17H992.929V19.544H991.033ZM995.209 14.984H998.401V37.088H995.209V14.984ZM1019.95 25.16V27.68H1004.4V16.784H1019.78V19.352H1007.57V25.16H1019.95ZM1002.07 31.832H1022.09V34.424H1002.07V31.832ZM1030.75 24.584V21.896H1027.89V24.584H1030.75ZM1033.68 16.376V27.056H1024.92V16.376H1027.89V19.472H1030.75V16.376H1033.68ZM1027.77 31.808V29.288H1042.99V37.088H1039.82V31.808H1027.77ZM1039.99 14.96H1042.99V28.256H1039.99V22.904H1038.26V28.184H1035.31V15.344H1038.26V20.36H1039.99V14.96Z" fill="white"/>
</g>
</g>
<defs>
<filter id="filter0_d_2311_35" x="0" y="48" width="1088" height="719" filterUnits="userSpaceOnUse" color-interpolation-filters="sRGB">
<feFlood flood-opacity="0" result="BackgroundImageFix"/>
<feColorMatrix in="SourceAlpha" type="matrix" values="0 0 0 0 0 0 0 0 0 0 0 0 0 0 0 0 0 0 127 0" result="hardAlpha"/>
<feOffset dy="4"/>
<feGaussianBlur stdDeviation="2"/>
<feComposite in2="hardAlpha" operator="out"/>
<feColorMatrix type="matrix" values="0 0 0 0 0 0 0 0 0 0 0 0 0 0 0 0 0 0 0.25 0"/>
<feBlend mode="normal" in2="BackgroundImageFix" result="effect1_dropShadow_2311_35"/>
<feBlend mode="normal" in="SourceGraphic" in2="effect1_dropShadow_2311_35" result="shape"/>
</filter>
<clipPath id="clip0_2311_35">
<rect width="1088" height="767" fill="white"/>
</clipPath>
<clipPath id="clip1_2311_35">
<rect width="112" height="24" fill="white" transform="translate(931 14)"/>
</clipPath>
</defs>
</svg>
