<svg width="1103" height="657" viewBox="0 0 1103 657" fill="none" xmlns="http://www.w3.org/2000/svg">
<path fill-rule="evenodd" clip-rule="evenodd" d="M920.264 0L888 49.6744H920.264V71V89H938.264H992.706H1074.06C1084 89 1092.06 80.9411 1092.06 71V18C1092.06 8.05887 1084 0 1074.06 0H992.706H938.264H920.264Z" fill="#07133B"/>
<path d="M951.552 17.544V27.36C952.368 27.36 953.184 27.312 954.024 27.288V17.544H951.552ZM957.072 17.544V27.096C958.008 27.048 958.92 26.952 959.832 26.832L960.024 29.112C955.368 29.904 950.28 30 946.32 30.024L945.984 27.432C946.776 27.432 947.616 27.432 948.48 27.432V17.544H946.56V15H958.968V17.544H957.072ZM961.248 12.984H964.44V35.088H961.248V12.984ZM985.99 23.16V25.68H970.438V14.784H985.822V17.352H973.606V23.16H985.99ZM968.11 29.832H988.126V32.424H968.11V29.832ZM996.788 22.584V19.896H993.932V22.584H996.788ZM999.716 14.376V25.056H990.956V14.376H993.932V17.472H996.788V14.376H999.716ZM993.812 29.808V27.288H1009.03V35.088H1005.86V29.808H993.812ZM1006.03 12.96H1009.03V26.256H1006.03V20.904H1004.3V26.184H1001.35V13.344H1004.3V18.36H1006.03V12.96ZM1036.34 20.808L1035.14 23.352C1031.28 22.776 1028.52 20.976 1027.1 18.6C1025.69 20.976 1022.9 22.776 1019.04 23.352L1017.84 20.808C1022.88 20.112 1025.4 17.256 1025.4 14.664V13.608H1028.78V14.664C1028.78 17.232 1031.33 20.112 1036.34 20.808ZM1037.06 24.984V27.552H1028.59V35.088H1025.42V27.552H1017.1V24.984H1037.06ZM1051.15 18.288H1054.46V12.96H1057.63V26.112H1054.46V20.856H1051.15V18.288ZM1052.47 23.04L1050.93 25.512C1048.53 24.72 1046.88 23.16 1045.92 21.216C1044.96 23.448 1043.21 25.248 1040.64 26.112L1039.03 23.616C1042.53 22.392 1044.14 19.584 1044.24 16.824H1039.89V14.28H1051.77V16.824H1047.48C1047.57 19.344 1049.11 21.936 1052.47 23.04ZM1050.17 32.688C1053.05 32.688 1054.56 32.088 1054.56 30.84C1054.56 29.592 1053.05 28.992 1050.17 28.992C1047.26 28.992 1045.75 29.592 1045.75 30.84C1045.75 32.088 1047.26 32.688 1050.17 32.688ZM1050.17 26.592C1054.85 26.592 1057.73 28.152 1057.73 30.84C1057.73 33.528 1054.85 35.088 1050.17 35.088C1045.46 35.088 1042.58 33.528 1042.58 30.84C1042.58 28.152 1045.46 26.592 1050.17 26.592Z" fill="white"/>
<g filter="url(#filter0_d_2324_79)">
<path d="M1082 45H21C11.6112 45 4 51.6283 4 59.8046V556.195C4 564.372 11.6112 571 21 571H1082C1091.39 571 1099 564.372 1099 556.195V59.8046C1099 51.6283 1091.39 45 1082 45Z" fill="white"/>
</g>
<defs>
<filter id="filter0_d_2324_79" x="0" y="45" width="1103" height="534" filterUnits="userSpaceOnUse" color-interpolation-filters="sRGB">
<feFlood flood-opacity="0" result="BackgroundImageFix"/>
<feColorMatrix in="SourceAlpha" type="matrix" values="0 0 0 0 0 0 0 0 0 0 0 0 0 0 0 0 0 0 127 0" result="hardAlpha"/>
<feOffset dy="4"/>
<feGaussianBlur stdDeviation="2"/>
<feComposite in2="hardAlpha" operator="out"/>
<feColorMatrix type="matrix" values="0 0 0 0 0 0 0 0 0 0 0 0 0 0 0 0 0 0 0.25 0"/>
<feBlend mode="normal" in2="BackgroundImageFix" result="effect1_dropShadow_2324_79"/>
<feBlend mode="normal" in="SourceGraphic" in2="effect1_dropShadow_2324_79" result="shape"/>
</filter>
</defs>
</svg>
